HIERARCHY
ROOT Hips
{
	OFFSET	0.00	0.00	0.00
	CHANNELS 6 Xposition Yposition Zposition Zrotation Xrotation Yrotation
	JOINT LeftHip
	{
		OFFSET	 3.430000	 0.000000	 0.000000
		CHANNELS 3 Zrotation Xrotation Yrotation
		JOINT LeftKnee
		{
			OFFSET	 0.000000	-18.469999	 0.000000
			CHANNELS 3 Zrotation Xrotation Yrotation
			JOINT LeftAnkle
			{
				OFFSET	 0.000000	-17.950001	 0.000000
				CHANNELS 3 Zrotation Xrotation Yrotation
				End Site 
				{
					OFFSET	 0.000000	-3.119996	 0.000000
				}
			}
		}
	}
	JOINT RightHip
	{
		OFFSET	-3.430000	 0.000000	 0.000000
		CHANNELS 3 Zrotation Xrotation Yrotation
		JOINT RightKnee
		{
			OFFSET	 0.000000	-18.809999	 0.000000
			CHANNELS 3 Zrotation Xrotation Yrotation
			JOINT RightAnkle
			{
				OFFSET	 0.000000	-17.570000	 0.000000
				CHANNELS 3 Zrotation Xrotation Yrotation
				End Site 
				{
					OFFSET	 0.000000	-3.250000	 0.000000
				}
			}
		}
	}
	JOINT Chest
	{
		OFFSET	 0.000000	 4.570000	 0.000000
		CHANNELS 3 Zrotation Xrotation Yrotation
		JOINT LeftCollar
		{
			OFFSET	 1.060000	 15.330000	 1.760000
			CHANNELS 3 Zrotation Xrotation Yrotation
			JOINT LeftShoulder
			{
				OFFSET	 5.810000	 0.000000	 0.000000
				CHANNELS 3 Zrotation Xrotation Yrotation
				JOINT LeftElbow
				{
					OFFSET	 0.000000	-12.080000	 0.000000
					CHANNELS 3 Zrotation Xrotation Yrotation
					JOINT LeftWrist
					{
						OFFSET	 0.000000	-9.820000	 0.000000
						CHANNELS 3 Zrotation Xrotation Yrotation
						End Site 
						{
							OFFSET	 0.000000	-7.369996	 0.000000
						}
					}
				}
			}
		}
		JOINT RightCollar
		{
			OFFSET	-1.060000	 15.330000	 1.760000
			CHANNELS 3 Zrotation Xrotation Yrotation
			JOINT RightShoulder
			{
				OFFSET	-6.060000	 0.000000	 0.000000
				CHANNELS 3 Zrotation Xrotation Yrotation
				JOINT RightElbow
				{
					OFFSET	 0.000000	-11.900000	 0.000000
					CHANNELS 3 Zrotation Xrotation Yrotation
					JOINT RightWrist
					{
						OFFSET	 0.000000	-9.520000	 0.000000
						CHANNELS 3 Zrotation Xrotation Yrotation
						End Site 
						{
							OFFSET	 0.000000	-7.140012	 0.000000
						}
					}
				}
			}
		}
		JOINT Neck
		{
			OFFSET	 0.000000	 17.620001	 0.000000
			CHANNELS 3 Zrotation Xrotation Yrotation
			JOINT Head
			{
				OFFSET	 0.000000	 5.190000	 0.000000
				CHANNELS 3 Zrotation Xrotation Yrotation
				End Site 
				{
					OFFSET	 0.000000	 4.140008	 0.000000
				}
			}
		}
	}
}

MOTION
Frames: 28
Frame Time: 0.033333
13.0861 6.8557 -45.0943 3.24284 6.13586 -52.8893 12.5617 1.22507 10.665 -5.00648 8.2479 4.58331 -16.4643 24.1733 4.89451 -10.2278 -12.4641 -27.4389 5.22141 21.0036 0.650845 3.20663 21.544 16.8954 0.692834 7.8206 -4.49176 0 0 0 -176.136 -47.9528 146.194 -9.68589 -19.5172 -3.30181 -0.00245161 -15.3123 16.482 0 0 0 -176.626 -50.7669 -133.532 17.4764 -34.8497 12.0317 -28.7445 -29.8821 -28.6135 0 0 0 -15.924 -50.1452 -17.5318 
13.0635 9.3016 -44.4414 1.95486 7.00841 -55.3077 14.474 2.27608 11.3216 -5.25822 6.98447 4.70026 -17.7136 33.0713 3.33185 -8.11151 -6.13138 -27.4681 4.97333 15.9077 1.58439 5.06892 30.0966 17.117 0.671128 5.73426 -5.65288 0 0 0 -172.147 -39.9039 149.717 -4.79815 -13.8921 2.07893 1.79594 -10.5421 18.816 0 0 0 -179.403 -40.7698 -130.636 12.3054 -27.0313 7.57071 -24.6188 -25.8922 -34.3353 0 0 0 -17.3165 -52.2234 -20.4099 
13.0258 11.4939 -43.8437 0.967685 8.08741 -57.6055 16.3162 4.08188 11.5397 -5.34287 6.53495 4.53573 -17.4028 39.9292 0.558922 -6.33169 -0.631808 -27.3789 4.97081 14.3281 3.0098 7.74555 36.643 16.0868 0.867324 3.48445 -7.00582 0 0 0 -170.051 -32.8788 151.614 -0.877144 -7.46363 6.66906 6.11249 -6.0027 25.3158 0 0 0 177.629 -33.3365 -127.663 8.39547 -19.0842 4.46337 -20.3877 -21.8901 -37.6933 0 0 0 -19.0349 -54.4381 -22.9237 
13.0183 13.3372 -43.3716 -0.0279 9.09255 -59.7512 18.0336 7.04055 10.7833 -5.83581 7.43595 4.18385 -16.2785 42.4219 -1.77187 -5.34374 4.29443 -26.5849 5.43006 15.6969 3.89923 10.4273 40.0529 13.0057 1.13285 1.2324 -8.44467 0 0 0 -170.387 -28.091 149.855 1.01181 -2.77591 9.14552 11.7714 -2.84537 31.1287 0 0 0 174.876 -27.1149 -124.234 5.97555 -12.0577 2.14914 -15.491 -16.9386 -38.5313 0 0 0 -20.8364 -56.5507 -24.9575 
13.1011 14.8464 -42.9723 -0.948988 10.0224 -62.196 19.2269 10.9205 8.795 -5.41738 8.77168 4.13393 -14.4332 42.4456 -3.27773 -4.93854 9.18402 -25.5207 5.90073 18.5578 4.22664 10.7234 40.6725 11.6786 1.43011 -0.977893 -9.22356 0 0 0 -171.809 -24.5853 146.971 2.3603 -0.23986 10.6948 16.3031 0.0785597 34.9113 0 0 0 173.142 -22.3689 -120.515 5.32832 -7.02224 0.238187 -12.4559 -12.0821 -38.4215 0 0 0 -22.6891 -58.1839 -26.5926 
13.3196 15.7379 -42.7237 -2.11449 10.1995 -64.8517 21.1145 15.4057 6.94531 -5.20514 9.94136 3.92787 -12.4166 41.2139 -3.65755 -5.83109 14.0326 -23.3927 6.19386 21.0367 4.49944 10.3061 40.4596 11.2714 1.60123 -2.09261 -9.00566 0 0 0 -173.208 -21.967 145.936 2.75158 1.13391 11.2201 19.9458 2.20013 37.0831 0 0 0 173.135 -20.1274 -119.252 5.3969 -5.10028 -0.389241 -11.4179 -8.80625 -37.9994 0 0 0 -23.617 -58.558 -27.0344 
13.6059 16.4461 -42.5404 -3.32974 10.3134 -67.52 23.4366 19.9239 5.35955 -5.20434 10.866 4.50025 -10.1788 39.6252 -4.33206 -6.8773 18.2971 -21.9201 6.24577 23.4631 4.85868 10.1102 40.4628 10.522 1.69623 -2.90055 -8.79506 0 0 0 -174.717 -19.2636 144.905 2.916 2.21656 11.8289 24.6391 4.9129 39.4127 0 0 0 173.148 -18.1373 -118.697 5.57411 -3.7586 -1.10728 -11.5325 -5.70562 -38.8625 0 0 0 -24.1528 -58.1681 -27.0782 
14.0278 16.6922 -42.5479 -4.32082 10.5444 -69.7862 25.3799 22.7753 5.05516 -5.38732 11.9284 4.50139 -7.03264 37.8348 -5.27959 -7.46126 20.9593 -22.0836 6.17037 25.5309 5.35534 10.0579 40.3741 10.6674 1.86689 -3.7137 -8.91637 0 0 0 -176.921 -16.5095 143.543 2.20524 1.74082 12.3899 30.3096 7.7469 42.0612 0 0 0 173.303 -15.9124 -119.47 6.34457 -4.50133 -1.86124 -13.588 -2.82723 -39.3474 0 0 0 -23.5258 -56.4582 -25.6023 
14.6003 16.3507 -42.6484 -5.03871 10.217 -72.0782 26.1782 24.6816 4.15133 -5.37112 12.3525 4.27719 -5.54127 34.2945 -4.52342 -8.26863 21.7886 -21.6198 6.21877 26.6021 5.27473 9.94227 38.7178 10.1682 1.51524 -3.48341 -8.39041 0 0 0 -179.484 -13.8859 142.984 0.788466 -0.89198 12.5751 32.1614 8.67307 43.3244 0 0 0 173.482 -14.0069 -120.262 6.80192 -6.83572 -2.06076 -15.1904 -2.60103 -41.7544 0 0 0 -21.6686 -52.8814 -23.051 
15.326 15.6149 -42.789 -5.46517 9.71885 -74.8198 26.3072 25.9424 4.07568 -5.50984 12.2541 4.33342 -4.55099 31.0965 -3.65499 -9.18843 21.7622 -21.2155 6.17828 26.5863 5.11911 10.0742 37.4597 9.09998 0.980125 -3.08203 -7.48939 0 0 0 177.581 -11.7455 142.073 -1.42381 -4.92283 12.3421 31.1552 8.44742 43.9836 0 0 0 173.737 -12.0056 -121.331 7.25508 -10.2913 -1.74935 -14.3643 -6.05222 -43.9127 0 0 0 -19.6394 -48.499 -20.2519 
16.21 14.4522 -42.9447 -5.31315 9.21116 -77.8667 25.867 24.5086 4.09688 -5.46635 12.6199 4.73904 -5.33444 28.0516 -4.38712 -9.50336 19.7197 -21.3118 5.89996 25.8033 5.12451 10.3573 35.4492 8.63016 0.546084 -2.43988 -6.69269 0 0 0 173.474 -8.55636 143.163 -5.71005 -11.9133 9.61725 22.4343 4.89419 41.334 0 0 0 174.108 -9.07277 -122.685 7.63383 -15.9866 -0.603334 -13.8983 -10.7188 -44.4066 0 0 0 -17.0941 -42.0325 -16.7408 
17.1693 12.9253 -43.1355 -5.22221 8.59992 -80.8624 25.1831 22.1926 3.49543 -5.71378 12.4057 4.58856 -6.24187 25.1934 -4.94588 -9.57149 16.3843 -21.3285 5.49876 25.1912 5.14706 10.4016 33.1098 8.49536 0.243725 -1.397 -6.15654 0 0 0 169.6 -5.00322 145.393 -10.5283 -19.3662 6.65766 11.8271 0.753196 39.1422 0 0 0 175.38 -5.45326 -124.07 8.79203 -21.6359 0.824815 -14.1835 -15.6753 -45.4281 0 0 0 -15.1223 -35.1185 -13.8392 
18.2366 11.0268 -43.3163 -5.94076 7.99372 -84.6152 24.0861 19.307 2.6352 -5.80843 12.3663 4.70285 -6.81058 22.5425 -5.61168 -9.28852 12.3492 -20.7222 5.28579 24.775 5.04443 9.80297 28.3196 7.31665 0.103344 0.101433 -6.04641 0 0 0 165.642 -1.29433 147.469 -15.7087 -26.7199 3.62716 3.28379 -4.14067 38.5555 0 0 0 177.145 -1.33945 -124.614 10.0698 -26.5933 1.91126 -14.6886 -20.657 -47.2629 0 0 0 -13.8666 -28.6853 -11.4307 
19.4169 8.7341 -43.462 -5.42865 7.5176 -87.4366 22.7767 17.4106 1.79601 -6.01725 12.1859 4.65634 -6.75131 16.8395 -5.62932 -8.30133 9.65862 -20.4514 5.31907 24.7632 4.95678 8.13712 19.549 5.91434 0.258299 1.88321 -6.12042 0 0 0 161.401 1.84854 149.146 -20.8333 -32.8774 1.21455 -5.21297 -9.08385 37.6787 0 0 0 179.423 2.16426 -124.342 11.4629 -31.8702 2.85133 -13.742 -24.9541 -48.401 0 0 0 -13.1703 -23.2599 -9.10256 
20.5821 6.2128 -43.58 -5.21689 7.09222 -88.9734 20.668 18.3302 0.827279 -6.02532 11.7731 4.84353 -6.80764 8.77158 -5.36027 -6.78448 7.27389 -20.3279 4.8853 26.1512 5.38492 6.08781 9.46047 4.71375 0.716841 4.22131 -6.25484 0 0 0 157.527 3.39004 150.421 -25.1601 -37.1024 -1.40195 -14.9025 -13.9829 36.4374 0 0 0 -177.697 3.56666 -123.196 13.0445 -36.7219 4.12917 -10.8065 -29.6004 -48.1272 0 0 0 -12.7626 -19.2395 -7.31446 
21.7724 3.6162 -43.6202 -5.27002 6.66274 -90.3089 18.5175 20.2418 0.106689 -5.86071 11.4177 4.80531 -7.26342 0.486684 -4.94148 -5.48056 4.78756 -18.4409 4.3855 29.2754 5.52023 4.13811 -0.485126 3.23432 1.29362 6.59836 -6.33956 0 0 0 153.183 2.57678 150.901 -28.8037 -40.2191 -4.45825 -23.6841 -17.9267 34.4998 0 0 0 -174.913 2.92039 -121.406 14.9376 -40.7225 5.7622 -8.22435 -33.7964 -45.409 0 0 0 -12.731 -15.8049 -5.85872 
22.8925 1.2331 -43.6754 -5.88553 6.13615 -91.8553 16.3253 22.967 -1.93472 -5.52639 11.2856 4.9117 -7.73178 -7.83457 -3.69655 -4.17262 3.15771 -16.0613 5.0282 32.2648 4.89674 1.3255 -9.60144 1.43501 1.85446 9.49214 -6.5092 0 0 0 148.9 -0.323629 150.373 -31.6755 -41.9413 -7.54833 -31.8753 -20.529 30.6141 0 0 0 -171.083 -0.274721 -119.165 17.1769 -43.9832 7.80789 -6.24027 -35.5422 -40.3121 0 0 0 -12.6231 -12.8157 -4.60824 
23.9221 -0.7633 -43.7332 -7.27797 5.68522 -94.2383 14.4034 28.3975 -3.98063 -5.26763 10.9096 4.60276 -5.5657 -15.5949 -1.28647 -3.5699 3.5998 -13.5121 5.51748 35.9412 4.21971 -2.05019 -16.8445 -0.363705 1.83038 12.9276 -5.97734 0 0 0 146.251 -7.30303 147.4 -29.5372 -40.6724 -6.7688 -30.093 -17.994 28.6638 0 0 0 -165.958 -6.07324 -116.322 19.0047 -45.052 9.44763 -4.82009 -35.8614 -37.1304 0 0 0 -12.1315 -11.5652 -4.08855 
24.8462 -2.3504 -43.7834 -8.30117 5.42392 -97.0326 13.8644 33.7307 -5.14199 -4.96013 11.0774 4.17033 -2.93109 -22.0824 0.588145 -3.42061 4.78058 -11.7383 5.73339 39.2302 3.72072 -4.93297 -23.8071 -1.28375 1.70756 16.014 -5.27547 0 0 0 142.384 -16.8005 142.09 -26.8863 -38.3241 -5.27364 -26.3536 -15.1107 25.5721 0 0 0 -159.526 -12.9114 -112.502 20.3479 -44.7878 10.9144 -2.7219 -36.232 -33.662 0 0 0 -11.782 -10.619 -3.58233 
25.6196 -3.2243 -43.8512 -10.8351 5.50591 -97.5609 14.4437 38.2885 -5.33689 -5.12988 10.7745 4.1279 -1.23796 -26.9275 0.759891 -3.4823 6.09734 -11.1343 5.95205 41.8702 3.53914 -6.51448 -27.956 -1.31316 1.33878 18.9473 -4.30527 0 0 0 136.229 -28.9031 134.414 -23.5617 -34.3402 -3.98236 -25.6771 -11.1072 18.1623 0 0 0 -150.593 -21.1381 -107.728 20.5542 -44.0102 12.1345 0.208704 -36.3917 -28.8001 0 0 0 -11.2262 -9.50338 -3.11702 
26.2349 -3.5257 -43.9592 -12.9121 5.53472 -97.7462 14.6065 41.2489 -5.35271 -5.08779 10.5575 4.24682 -0.81667 -28.1149 1.07733 -3.58569 5.62525 -10.1615 6.21432 43.7651 3.19167 -7.21198 -27.9192 -1.32776 0.7266 21.4697 -3.33 0 0 0 126.165 -39.4716 123.103 -21.1222 -30.059 -4.18807 -25.2607 -7.42838 9.90486 0 0 0 -139.529 -28.4924 -100.028 20.4385 -42.0998 13.3705 3.05106 -37.2921 -24.1267 0 0 0 -10.5387 -8.40158 -2.73184 
26.702 -3.262 -44.0571 -13.7875 5.56887 -98.1334 14.9962 41.2532 -4.69887 -5.14199 10.3963 4.04817 -1.28904 -25.8059 0.905842 -4.14127 4.98999 -9.51911 6.91765 44.1038 2.20754 -6.95189 -25.5697 -0.482341 0.101033 23.504 -2.80302 0 0 0 111.453 -46.9725 107.287 -18.4946 -26.2002 -4.21938 -23.9667 -3.8795 1.59395 0 0 0 -126.809 -34.182 -89.4955 19.2935 -39.1483 13.7831 5.61521 -37.1666 -20.485 0 0 0 -9.84806 -8.06587 -2.21159 
27.0535 -2.6568 -44.2128 -14.2313 5.6086 -98.25 15.6648 40.0548 -4.08215 -5.35017 10.0668 4.06935 -1.91335 -21.5679 0.166885 -4.70951 4.78009 -10.6328 7.23993 42.9661 1.95328 -6.60859 -22.5063 1.0778 -0.612022 25.2299 -2.44518 0 0 0 95.0856 -50.4241 89.0567 -15.958 -21.3492 -3.97893 -22.1508 0.143743 -7.55002 0 0 0 -111.591 -37.7174 -76.2245 17.5554 -35.7085 13.6686 8.657 -36.3348 -16.4441 0 0 0 -8.84166 -8.31584 -1.73464 
27.3047 -1.921 -44.3409 -14.1158 5.81224 -98.2274 16.2849 37.9459 -2.30637 -5.67848 9.43257 3.93012 -2.36465 -17.3794 -1.53751 -4.9695 4.06302 -12.5172 6.42992 41.6095 2.66932 -5.97781 -19.8225 2.84744 -1.04467 26.2898 -2.3656 0 0 0 77.7172 -50.5544 69.4383 -13.3207 -16.8014 -3.61407 -19.1398 3.65266 -16.7731 0 0 0 -96.1951 -39.0001 -62.5773 15.2691 -31.6791 12.6243 10.9388 -35.2746 -12.8237 0 0 0 -7.86803 -8.86533 -1.27827 
27.4453 -1.1878 -44.4564 -12.9031 5.99685 -97.9052 17.3443 34.3747 -0.429631 -5.88583 8.73894 3.89934 -2.82775 -13.7279 -3.67502 -4.71097 2.6314 -14.2235 5.71545 39.7435 3.12907 -5.70253 -18.3985 4.03792 -0.592872 26.1085 -3.06901 0 0 0 61.4268 -47.8241 51.0089 -10.922 -12.6777 -3.36575 -16.1253 6.05285 -25.3626 0 0 0 -81.4371 -39.0332 -50.0429 13.2429 -27.7923 11.2951 13.5405 -33.8218 -9.06106 0 0 0 -7.38384 -9.86782 -0.728985 
27.5407 -0.5499 -44.5845 -11.8139 6.08071 -97.3865 17.8899 31.1593 0.495951 -6.01614 7.79646 4.51219 -3.18197 -11.4121 -5.49547 -4.1018 1.62006 -15.4667 5.46464 37.5394 3.43371 -5.87588 -17.2701 4.3089 -0.0426202 25.5795 -3.83951 0 0 0 48.4278 -43.1587 35.9308 -9.06678 -9.40729 -3.37018 -13.8027 7.39413 -32.9622 0 0 0 -68.5449 -37.7532 -39.6046 11.4839 -25.3025 10.0746 16.5766 -31.8858 -4.35801 0 0 0 -6.97377 -10.6375 -0.316743 
27.6186 -0.231 -44.6799 -10.8838 5.84102 -96.9075 17.4417 28.9898 0.575167 -5.76994 7.17761 4.55366 -3.60073 -11.3424 -5.4064 -3.54725 1.02127 -15.8458 5.23339 35.5035 3.40329 -5.98835 -16.7728 4.21011 0.528755 24.4346 -4.5703 0 0 0 38.758 -39.0768 25.6546 -8.54209 -8.14859 -3.43947 -12.8283 7.79351 -37.5731 0 0 0 -58.9098 -35.6498 -32.5631 11.3997 -23.8713 9.76092 19.3278 -29.733 0.312088 0 0 0 -6.89167 -10.9341 -0.16856 
27.6889 -0.0603 -44.7603 -10.1187 5.54332 -96.3842 17.0491 27.2051 0.604022 -5.56354 6.57886 4.6069 -4.12648 -11.5995 -5.47055 -3.24951 0.617754 -16.2015 4.84829 33.8623 3.52872 -5.64665 -16.6592 4.12753 1.12686 23.0845 -5.29005 0 0 0 30.6871 -34.2205 17.2065 -8.57555 -8.58066 -3.4713 -11.6352 8.12905 -40.9275 0 0 0 -50.7125 -32.3832 -26.2937 12.0533 -23.1368 9.83627 21.8779 -27.4069 5.63961 0 0 0 -6.85267 -10.6968 -0.145834 
